<svg width="47" height="47" viewBox="0 0 47 47" fill="none" xmlns="http://www.w3.org/2000/svg">
<circle cx="23.6605" cy="23.4266" r="23.2894" fill="white"/>
<g clip-path="url(#clip0_126_1486)">
<path fill-rule="evenodd" clip-rule="evenodd" d="M44.4877 23.4253C44.4877 16.6962 41.23 10.341 35.7292 6.44238C35.6224 7.45709 34.6077 8.15136 34.9815 8.79223C36.2099 10.875 36.6371 14.6668 37.4916 17.6041C37.812 18.6188 36.5303 18.8859 36.7973 20.221C37.1178 21.4493 38.5063 24.1196 38.7199 24.7071C39.0404 25.4014 39.3074 26.149 39.4676 26.8967C39.8414 28.4455 37.3314 28.0182 37.011 29.0329C36.8507 29.567 37.1712 29.6738 37.1712 30.3147C37.1712 30.9555 36.6371 31.1692 36.6371 31.543C36.6905 31.81 36.6905 32.077 36.6905 32.3441C36.6371 32.8247 36.2099 32.9315 36.1565 33.6792C36.1031 34.2133 36.4769 34.3735 36.4235 35.1212C36.2099 37.8983 33.2726 39.1266 30.2819 38.3255C29.8012 39.18 29.4274 40.0879 29.1069 40.9958C28.9467 41.6366 28.9467 42.7048 28.5729 43.5592C28.5195 43.6126 28.5195 43.6661 28.4661 43.7195C37.8654 41.423 44.4877 33.0918 44.4877 23.4253Z" fill="url(#paint0_linear_126_1486)"/>
<path fill-rule="evenodd" clip-rule="evenodd" d="M5.55442 16.6961C5.4432 17.4772 5.61359 18.2723 6.03507 18.9392C6.78275 19.9539 8.11789 19.7937 9.07919 19.2596C9.82687 18.779 10.5211 18.2449 11.162 17.6574C11.6961 17.1234 15.8617 13.0112 16.7162 12.3703C17.7843 11.5692 18.3184 12.2635 19.4933 12.2101C20.4012 12.2101 21.4693 11.3022 22.0033 10.6613C22.3772 10.2341 23.2317 8.36488 23.2851 9.91364C23.2851 10.9283 22.8578 11.8896 22.1101 12.5305C21.3091 13.3316 20.3478 13.4918 19.2797 13.5986C15.114 14.0793 14.6868 17.7108 15.9685 18.2983C15.7015 17.5506 15.8083 16.7495 16.1821 16.1087C16.7162 15.361 17.5707 14.8804 18.4786 14.9338C19.2797 15.0406 21.042 16.3757 22.5908 14.3997C23.2317 13.5986 23.8191 12.7441 24.3532 11.8362C24.727 11.142 24.6736 10.3409 24.8872 9.5932C24.994 9.00574 25.4747 9.00574 26.0622 8.84553C27.1303 8.5785 28.1984 8.15125 29.1063 7.51039C30.1744 6.86952 31.1891 6.06844 31.9902 5.16054C32.2572 4.94692 32.5242 4.7867 32.8447 4.7333C25.7951 1.26194 17.4105 2.06302 11.1086 6.81611C10.5211 7.24336 10.0405 7.77741 9.55984 8.31147C9.02578 8.89893 8.49173 9.5398 8.11789 10.2341C6.72935 12.4237 5.60783 15.1474 5.55442 16.6961Z" fill="url(#paint1_linear_126_1486)"/>
<path fill-rule="evenodd" clip-rule="evenodd" d="M13.5123 37.8614V37.7012V37.4876V36.9001V36.4729C13.5123 36.3661 13.4589 36.2059 13.4589 36.0991C13.3521 35.298 13.085 34.5503 12.7112 33.8026C11.9101 32.4675 10.8954 31.2926 9.72048 30.3313C9.34664 30.0642 9.13302 29.7972 8.75918 29.5302C7.37064 28.6223 6.24912 27.394 5.34123 26.0054L4.27311 24.243C3.95268 23.709 3.73906 23.1215 3.57884 22.534C3.31181 21.5727 3.1516 20.558 3.205 19.5967V19.4365C1.54943 27.9814 5.34123 36.6331 12.7112 41.1726C13.0316 40.1045 13.2987 38.983 13.5123 37.8614Z" fill="url(#paint2_linear_126_1486)"/>
<path fill-rule="evenodd" clip-rule="evenodd" d="M28.519 41.3861C28.519 40.4782 29.1064 40.2112 28.786 39.6771C28.4122 38.9828 27.5577 38.7158 26.8634 38.3954C26.1157 37.9681 25.3681 37.6477 24.567 37.3807C24.1931 37.2739 23.7125 37.2205 23.4989 36.7932C23.4455 36.6864 25.101 37.1136 25.2078 37.1136C25.7419 37.2739 26.3294 37.3807 26.9168 37.4341C27.7713 37.4875 28.6258 37.6477 29.3201 37.0068C32.471 38.5022 33.7527 37.8613 34.2868 37.5943C34.8208 37.3273 36.3696 36.2058 36.1026 34.8172C35.9958 34.2832 35.3015 34.1229 35.3015 33.7491C35.3015 33.3753 35.5151 33.0548 35.7821 32.7878C35.9958 32.5742 36.156 32.2537 35.8355 31.9867C35.5685 31.8265 35.2481 31.7731 34.9277 31.8265C34.714 31.8265 34.5004 31.8799 34.2868 31.9333C32.0972 31.6663 32.6312 33.1082 32.3642 33.1082C32.0972 33.1082 32.1506 32.681 32.0438 32.5208C31.8835 32.3071 31.8301 32.0401 31.8835 31.7731C31.8835 31.5061 31.9369 31.239 31.9369 30.972C31.9369 30.705 31.7767 30.3845 31.9903 30.1175C32.204 29.8505 32.4176 30.972 32.6312 31.239C32.8448 31.3993 33.1119 31.3993 33.3255 31.2924C33.8595 31.1322 34.447 31.0788 35.0345 31.1322C35.5685 31.1322 36.423 31.1322 36.4764 30.438C36.4764 30.0641 36.2628 29.6903 35.889 29.5301C35.4617 29.2096 34.9277 28.996 34.3936 28.8358C33.8595 28.7824 33.6459 29.5301 33.3789 29.4232C33.1119 29.3164 33.4857 28.0881 34.2868 27.6609C34.5538 27.5541 34.8742 27.5541 35.1947 27.6609H35.9424C37.2775 27.6075 38.5058 27.5541 38.5058 27.02C38.4524 26.0053 37.4377 23.602 37.3309 23.3884L35.9424 21.092C35.4083 20.1841 36.2628 19.4898 35.6753 19.383C32.738 18.8489 31.6699 20.0773 31.8835 21.6794C31.9369 22.1601 31.029 22.1067 30.4416 21.8931C28.1986 20.9852 27.9315 21.7328 28.1451 20.9852C28.252 20.5579 30.9222 17.7808 34.6072 18.2081C35.4083 18.3149 36.2094 18.5285 36.4764 17.9411C36.7434 17.3536 36.1026 16.8729 35.5685 14.4697C35.0345 12.0664 35.1413 11.2654 34.447 9.82341C34.3402 9.34276 34.0198 8.96892 33.5391 8.8087C32.9516 8.7553 32.4176 8.91552 31.9369 9.23595L29.8541 10.3575C28.3588 11.1051 26.9168 11.9062 25.5817 12.9209C24.0329 14.0959 22.6444 15.4844 21.3626 16.9263C20.0275 18.5819 20.3479 19.8637 19.8673 20.1307C19.3866 20.3977 18.1583 19.0626 17.7311 19.383C17.3038 19.7034 17.7311 20.4511 18.2651 21.1988C18.7992 21.9465 19.3332 21.7863 19.3332 22.1067C19.3332 22.3737 18.0515 23.1748 17.7845 23.4418C17.2504 23.9759 17.0902 24.777 17.4106 25.4712C17.9447 26.5393 20.1877 26.2189 20.2945 26.5393C20.4013 26.8598 16.8766 27.5006 15.5414 24.6702C15.2744 24.0293 15.221 23.335 15.3812 22.6407C15.5948 21.9465 16.8232 21.7328 16.8232 21.359C16.8232 20.9852 15.8619 20.825 15.3278 20.8784C14.2063 20.9852 13.5654 22.0533 13.0848 22.9612C12.8178 23.4418 12.6575 23.9225 12.3905 24.3497C12.1235 24.8838 11.5894 26.0587 11.1622 25.9519C10.7349 25.8451 10.6281 24.5633 9.88045 24.4031C9.18618 24.2963 8.54531 24.6702 8.33169 25.311C8.06466 26.1121 8.54531 26.9666 9.07936 27.5541C9.3998 27.8745 9.77364 28.1949 10.2009 28.3551C10.9486 28.6756 11.6962 28.8892 12.5507 28.8892C12.978 28.8892 13.4586 28.8892 13.8859 28.8358C14.1529 28.8358 14.6869 28.729 14.954 28.8892C15.3278 29.1562 14.2063 29.9573 14.0461 30.1709C13.6188 30.705 13.3518 31.3458 13.2984 31.9867C13.1916 32.8412 15.0608 34.1229 15.1676 35.0842C15.221 35.7785 15.4346 37.9147 13.8325 41.7065C16.8766 43.3621 20.2945 44.2166 23.7659 44.2166C25.0012 44.216 26.2341 44.1088 27.4509 43.8962C27.5043 43.7359 28.519 42.0804 28.519 41.3861Z" fill="url(#paint3_linear_126_1486)"/>
<path d="M29.1602 40.9424C29.4806 40.0345 29.9078 39.1266 30.3351 38.2721C33.3258 39.0732 36.2631 37.8448 36.4767 35.0678C36.5301 34.3201 36.1563 34.1599 36.2097 33.6258C36.2631 32.8781 36.6903 32.7179 36.7437 32.2907C36.7437 32.0236 36.7437 31.7566 36.6903 31.4896C36.6903 31.1157 37.171 30.9021 37.2244 30.2613C37.2778 29.6204 36.904 29.5136 37.0642 28.9795C37.3846 27.9648 39.8947 28.3921 39.5208 26.8433C39.3072 26.0956 39.0936 25.3479 38.7732 24.6537C38.5595 24.0662 37.171 21.4493 36.8506 20.1676C36.5301 18.8325 37.8119 18.5654 37.5448 17.5507C36.6903 14.6134 36.2097 10.875 35.0348 8.73881C34.6609 8.09795 35.6756 7.40368 35.7824 6.38897C34.8211 5.80151 33.8598 5.21405 32.8451 4.7334C32.5247 4.84021 32.2577 4.94702 32.0441 5.21405C31.1896 6.12194 30.2283 6.92303 29.1602 7.56389C28.1989 8.15135 27.1841 8.632 26.116 8.89903C25.5286 9.05925 25.0479 9.05925 24.8877 9.70012C24.6741 10.4478 24.7275 11.1955 24.3537 11.9431C23.873 12.851 23.2855 13.7055 22.5913 14.5066C21.0425 16.4826 19.3335 15.2009 18.479 15.0407C17.5712 14.9873 16.7167 15.4679 16.1826 16.2156C15.8088 16.8565 15.702 17.7109 15.969 18.4052C14.6873 17.8178 15.0611 14.1328 19.2801 13.7055C20.3482 13.5987 21.3095 13.4385 22.1106 12.6374C22.8583 11.9431 23.2855 10.9818 23.2855 10.0205C23.2321 8.41838 22.3776 10.2876 22.0038 10.7682C21.4698 11.4091 20.3482 12.317 19.4938 12.317C18.3188 12.317 17.7848 11.6227 16.7167 12.4772C15.8622 13.1181 11.7499 17.2837 11.1625 17.7644C10.5216 18.3518 9.82735 18.9393 9.07967 19.3665C8.11837 19.954 6.78323 20.0608 6.03555 19.0461C5.60831 18.3518 5.44809 17.5507 5.5549 16.8031C5.60831 15.2543 6.62301 12.6908 7.95815 10.5012C8.75923 9.05925 9.82735 7.88433 11.0023 6.86962C11.0557 6.76281 9.50691 8.15135 9.56032 8.09795C6.30258 11.0887 4.05955 15.0407 3.20506 19.4199V19.5801C3.15165 20.5948 3.31187 21.5561 3.5789 22.5174C3.73911 23.1049 3.95273 23.6924 4.27317 24.2264C4.5936 24.8139 5.02085 25.4013 5.34128 25.9888C6.24917 27.3774 7.37069 28.6057 8.75923 29.5136C9.07967 29.7806 9.3467 30.0476 9.72053 30.3147C10.8955 31.276 11.9102 32.4509 12.7112 33.786C13.0851 34.5337 13.2987 35.2814 13.4589 36.0825C13.5123 36.6699 13.5123 37.2574 13.4589 37.8448C13.2453 38.9664 13.0317 40.0879 12.7112 41.156C12.7647 41.423 13.726 41.7435 13.726 41.7435C15.3815 37.9517 15.1145 35.8154 15.0611 35.1212C15.0077 34.1599 13.1385 32.8781 13.1919 32.0236C13.2453 31.3294 13.5123 30.6885 13.9396 30.2078C14.0998 29.9942 15.2213 29.1931 14.8475 28.9261C14.6338 28.7659 14.0464 28.8727 13.7794 28.8727C13.3521 28.8727 12.8715 28.9261 12.4442 28.9261C11.6431 28.8727 10.8421 28.7125 10.0944 28.3921C9.66713 28.1784 9.29329 27.9114 8.97286 27.591C8.4388 27.0035 7.95815 26.149 8.22518 25.3479C8.4388 24.7071 9.07967 24.2798 9.77394 24.44C10.5216 24.6003 10.6818 25.882 11.0557 25.9888C11.4295 26.0956 11.9636 24.9741 12.284 24.3866C12.4976 23.906 12.7112 23.4253 12.9783 22.9981C13.4589 22.0902 14.0998 21.0221 15.2213 20.9153C15.7554 20.8619 16.7167 21.0221 16.7167 21.3959C16.7167 21.7698 15.4883 21.9834 15.2747 22.6777C15.1145 23.3719 15.1679 24.0662 15.4349 24.7071C16.7701 27.5376 20.2948 26.8967 20.188 26.5763C20.0812 26.2558 17.8916 26.5229 17.3041 25.5082C17.0905 24.7605 17.2507 23.9594 17.7848 23.4253C17.9984 23.1583 19.3335 22.3572 19.3335 22.0902C19.3335 21.8232 18.7995 21.93 18.2654 21.1823C17.7314 20.4346 17.3041 19.687 17.7314 19.3665C18.1586 19.0461 19.3869 20.3278 19.8676 20.1142C20.3482 19.9006 20.0278 18.5654 21.3629 16.9099C22.6447 15.4145 24.0332 14.0794 25.582 12.9044C26.9171 11.9431 28.3591 11.0887 29.8544 10.341C30.5487 9.96714 31.243 9.5399 31.9372 9.21946C32.4179 8.89903 32.952 8.79222 33.5394 8.79222C33.9667 9.00584 34.3405 9.32628 34.5007 9.80693C35.195 11.3023 35.0882 12.05 35.6222 14.4532C36.1563 16.8565 36.7971 17.3371 36.5301 17.9246C36.2631 18.512 35.462 18.245 34.6609 18.1916C30.9759 17.7644 28.3591 20.5948 28.1989 20.9687C27.9852 21.7698 28.2523 20.9687 30.4953 21.8766C31.0828 22.0902 31.9907 22.1436 31.9372 21.663C31.6702 20.0608 32.7383 18.8325 35.729 19.3665C36.2631 19.4733 35.4086 20.221 35.9961 21.0755C36.3165 21.5561 37.0642 22.8379 37.3312 23.3185C37.438 23.5322 38.3993 25.9354 38.5061 26.9501C38.5595 27.4842 37.2778 27.5376 35.9427 27.591C35.6756 27.6444 35.462 27.6444 35.195 27.591C34.928 27.4842 34.6075 27.4842 34.2871 27.591C33.5394 28.0182 33.1656 29.1931 33.3792 29.3534C33.5928 29.5136 33.8598 28.7659 34.3939 28.7659C34.928 28.8727 35.4086 29.1397 35.8893 29.4602C36.2631 29.6204 36.4767 29.9942 36.4767 30.3681C36.4233 31.1157 35.5688 31.0623 35.0348 31.0623C34.4473 31.0089 33.8598 31.0623 33.3258 31.2226C33.1122 31.3294 32.8451 31.3294 32.6315 31.1691C32.3645 30.9555 32.2043 29.834 31.9907 30.0476C31.777 30.2613 31.9372 30.6351 31.9372 30.9021C31.9372 31.1691 31.9372 31.4362 31.8838 31.7032C31.8304 31.9702 31.8838 32.2373 32.0441 32.4509C32.2043 32.6645 32.0975 33.0383 32.3645 33.0383C32.6315 33.0383 32.0975 31.6498 34.2871 31.8634C34.5007 31.81 34.7143 31.81 34.928 31.7566C35.2484 31.7032 35.5688 31.7566 35.8358 31.9168C36.1563 32.1839 35.9961 32.4509 35.7824 32.7179C35.5198 32.976 35.3506 33.3142 35.3018 33.6792C35.3018 34.053 36.0495 34.2133 36.1029 34.7473C36.3165 36.0825 34.7677 37.2574 34.2871 37.5244C33.8064 37.7914 32.4713 38.4323 29.3204 36.9369C28.6261 37.5778 27.7716 37.4176 26.9171 37.3642C26.3831 37.4176 25.7956 37.3108 25.2616 37.1506C25.1547 37.0972 23.4992 36.6699 23.5526 36.8301C23.7662 37.2574 24.2468 37.3108 24.6207 37.4176C25.4218 37.6846 26.2228 38.0051 26.9171 38.4323C27.558 38.7527 28.4125 39.0732 28.8397 39.714C29.1602 40.2481 28.5727 40.5151 28.5727 41.423C28.5727 42.1173 27.5046 43.7729 27.3978 43.9331C27.7716 43.8797 28.1454 43.7729 28.5193 43.7195C28.5727 43.666 28.6261 43.6126 28.6261 43.5592C28.9999 42.6513 28.9999 41.5832 29.1602 40.9424Z" fill="url(#paint4_linear_126_1486)"/>
</g>
<defs>
<linearGradient id="paint0_linear_126_1486" x1="36.8439" y1="43.3654" x2="30.0274" y2="7.4911" gradientUnits="userSpaceOnUse">
<stop stop-color="#D18C0D"/>
<stop offset="0.761" stop-color="#F1BF04"/>
<stop offset="1" stop-color="#F2BF03"/>
</linearGradient>
<linearGradient id="paint1_linear_126_1486" x1="26.8445" y1="-0.262914" x2="18.6434" y2="24.6004" gradientUnits="userSpaceOnUse">
<stop stop-color="#FFFCE2"/>
<stop offset="0.088" stop-color="#F7F5DD"/>
<stop offset="0.22" stop-color="#E2E3CF"/>
<stop offset="0.38" stop-color="#C1C6B9"/>
<stop offset="0.562" stop-color="#929D9A"/>
<stop offset="0.759" stop-color="#576A74"/>
<stop offset="0.779" stop-color="#516570"/>
<stop offset="0.835" stop-color="#4D616B"/>
<stop offset="0.892" stop-color="#44555F"/>
<stop offset="0.95" stop-color="#34424A"/>
<stop offset="1" stop-color="#222D33"/>
</linearGradient>
<linearGradient id="paint2_linear_126_1486" x1="13.5016" y1="30.2917" x2="2.83063" y2="30.2917" gradientUnits="userSpaceOnUse">
<stop stop-color="#CE860D"/>
<stop offset="0.761" stop-color="#E7AF07"/>
<stop offset="1" stop-color="#F9E37E"/>
</linearGradient>
<linearGradient id="paint3_linear_126_1486" x1="39.3493" y1="23.0279" x2="10.0144" y2="30.7854" gradientUnits="userSpaceOnUse">
<stop stop-color="#EEF2F4"/>
<stop offset="0.037" stop-color="#F3F5ED"/>
<stop offset="0.127" stop-color="#FCFAE4"/>
<stop offset="0.258" stop-color="#FFFCE2"/>
<stop offset="0.339" stop-color="#EAE9D4"/>
<stop offset="0.506" stop-color="#B4BBB0"/>
<stop offset="0.744" stop-color="#5E7078"/>
<stop offset="0.779" stop-color="#516570"/>
<stop offset="0.835" stop-color="#4D616B"/>
<stop offset="0.892" stop-color="#44555F"/>
<stop offset="0.95" stop-color="#34424A"/>
<stop offset="1" stop-color="#222D33"/>
</linearGradient>
<linearGradient id="paint4_linear_126_1486" x1="7.59284" y1="32.2808" x2="40.9166" y2="15.7499" gradientUnits="userSpaceOnUse">
<stop stop-color="#F2F3F3"/>
<stop offset="0.35" stop-color="#EEF2F4"/>
<stop offset="0.39" stop-color="#E4EAEC"/>
<stop offset="0.456" stop-color="#CBD4D9"/>
<stop offset="0.54" stop-color="#A2B1B9"/>
<stop offset="0.638" stop-color="#6A828E"/>
<stop offset="0.699" stop-color="#436170"/>
<stop offset="0.771" stop-color="#3E5D6C"/>
<stop offset="0.846" stop-color="#325260"/>
<stop offset="0.922" stop-color="#1D404E"/>
<stop offset="0.998" stop-color="#002633"/>
</linearGradient>
<clipPath id="clip0_126_1486">
<rect width="41.6563" height="41.6563" fill="white" transform="translate(2.83179 2.59839)"/>
</clipPath>
</defs>
</svg>
