<svg width="517" height="345" viewBox="0 0 517 345" fill="none" xmlns="http://www.w3.org/2000/svg">
<g clip-path="url(#clip0_2_1193)">
<path d="M0 0.000976562H517V344.671H0V0.000976562Z" fill="#0052B4"/>
<path d="M258.5 0.000976562V118.473H211.981L258.5 149.493V172.331H235.651L161.562 122.934V172.331H96.9375V122.934L22.849 172.331H0V149.493L46.5189 118.473H0V53.8477H46.5189L0 22.8388V0.000976562H22.849L96.9375 49.3856V0.000976562H161.562V49.3856L235.651 0.000976562H258.5Z" fill="white"/>
<path d="M145.406 -0.00292969H113.094V70.0071H0V102.32H113.094V172.331H145.406V102.32H258.5V70.0071H145.406V-0.00292969Z" fill="#D80027"/>
<path d="M0 -0.00390625V15.2264L57.9373 53.8509H80.7812L0 -0.00390625ZM258.5 -0.00390625V15.2264L200.563 53.8509H177.719L258.5 -0.00390625Z" fill="#D80027"/>
<path d="M258.5 22.8389V53.8508H211.981L258.5 22.8389Z" fill="#2E52B2"/>
<path d="M0 -0.00390625V15.2264L57.9373 53.8509H80.7812L0 -0.00390625ZM258.5 -0.00390625V15.2264L200.563 53.8509H177.719L258.5 -0.00390625Z" fill="#D80027"/>
<path d="M258.5 22.8389V53.8508H211.981L258.5 22.8389Z" fill="#2E52B2"/>
<path d="M0 172.33V157.101L57.9373 118.476H80.7812L0 172.33ZM258.5 172.33V157.101L200.563 118.476H177.719L258.5 172.33Z" fill="#D80027"/>
<path d="M387.75 176.076L341.171 222.656C349.9 239.493 367.476 251.004 387.75 251.004C408.024 251.004 425.6 239.492 434.33 222.656L387.75 176.076Z" fill="#FFDA44"/>
<path d="M335.301 93.6572V176.078C335.302 216.226 387.75 228.527 387.75 228.527C387.75 228.527 440.198 216.226 440.199 176.077V93.6572H335.301Z" fill="#6DA544"/>
<path d="M376.512 131.116H398.99V191.055H376.512V131.116Z" fill="white"/>
<path d="M387.75 142.354C393.957 142.354 398.989 137.323 398.989 131.116C398.989 124.909 393.957 119.877 387.75 119.877C381.543 119.877 376.512 124.909 376.512 131.116C376.512 137.323 381.543 142.354 387.75 142.354Z" fill="#A2001D"/>
<path d="M350.29 108.638H365.275V123.623H350.29V108.638ZM350.29 142.356H365.275V157.341H350.29V142.356ZM350.29 176.073H365.275V191.058H350.29V176.073ZM410.229 108.638H425.214V123.623H410.229V108.638ZM410.229 142.356H425.214V157.341H410.229V142.356ZM410.229 176.073H425.214V191.058H410.229V176.073Z" fill="#FFDA44"/>
</g>
<defs>
<clipPath id="clip0_2_1193">
<rect width="517" height="344.666" fill="white"/>
</clipPath>
</defs>
</svg>
